<svg width="48" height="48" viewBox="0 0 48 48" fill="none" xmlns="http://www.w3.org/2000/svg">
<circle cx="16" cy="16" r="5" stroke="#222222" stroke-width="2" stroke-linecap="round"/>
<path d="M23.5359 17C24.0663 16.0813 24.94 15.4109 25.9647 15.1363C26.9894 14.8617 28.0813 15.0055 29 15.5359C29.9187 16.0663 30.5891 16.94 30.8637 17.9647C31.1383 18.9894 30.9945 20.0813 30.4641 21C29.9337 21.9187 29.06 22.5891 28.0353 22.8637C27.0106 23.1383 25.9187 22.9945 25 22.4641C24.0813 21.9337 23.4109 21.06 23.1363 20.0353C22.8617 19.0106 23.0055 17.9187 23.5359 17L23.5359 17Z" stroke="#222222" stroke-width="2"/>
<path d="M26.9392 36.0074L27.9344 35.9094L26.9392 36.0074ZM26 36H5.99999V38H26V36ZM6.05596 36.1054C6.19111 34.7324 6.63912 32.1684 8.07724 29.9735C9.47618 27.8383 11.8381 26 16 26V24C11.1066 24 8.14043 26.2277 6.40434 28.8774C4.70743 31.4673 4.21347 34.407 4.06558 35.9094L6.05596 36.1054ZM16 26C20.1619 26 22.5238 27.8383 23.9227 29.9735C25.3609 32.1684 25.8089 34.7324 25.944 36.1054L27.9344 35.9094C27.7865 34.407 27.2925 31.4673 25.5956 28.8774C23.8595 26.2277 20.8934 24 16 24V26ZM5.99999 36C5.99384 36 6.00643 35.9986 6.02384 36.0167C6.03261 36.0258 6.04227 36.0398 6.04895 36.0585C6.05602 36.0784 6.05691 36.0957 6.05596 36.1054L4.06558 35.9094C3.94794 37.1046 4.91587 38 5.99999 38V36ZM26 38C27.0841 38 28.052 37.1046 27.9344 35.9094L25.944 36.1054C25.9431 36.0957 25.944 36.0784 25.951 36.0585C25.9577 36.0398 25.9674 36.0258 25.9761 36.0167C25.9935 35.9986 26.0061 36 26 36V38Z" fill="#222222"/>
<path d="M34.8312 35.9128L35.8135 35.726V35.726L34.8312 35.9128ZM23.6007 27.9616L23.0649 27.1172L22.0346 27.7711L22.8781 28.6528L23.6007 27.9616ZM26.9392 36.0074L25.944 36.1054L26.9392 36.0074ZM33.8951 36H26V38H33.8951V36ZM33.8488 36.0996C33.8474 36.0926 33.8466 36.0765 33.8521 36.0569C33.8572 36.0388 33.8656 36.0253 33.8731 36.0166C33.8884 35.9992 33.901 36 33.8951 36V38C35.0582 38 36.0514 36.9768 35.8135 35.726L33.8488 36.0996ZM27.0001 28C29.3261 28 30.8847 29.2931 31.9721 31.0182C33.0743 32.7667 33.6114 34.8516 33.8488 36.0996L35.8135 35.726C35.5582 34.3835 34.9628 32.012 33.6641 29.9517C32.3506 27.868 30.2401 26 27.0001 26V28ZM24.1365 28.8059C24.9162 28.3111 25.8524 28 27.0001 28V26C25.4641 26 24.1575 26.4239 23.0649 27.1172L24.1365 28.8059ZM22.8781 28.6528C25.149 31.0267 25.7781 34.4196 25.944 36.1054L27.9344 35.9094C27.757 34.1073 27.0732 30.1448 24.3233 27.2703L22.8781 28.6528ZM25.944 36.1054C25.9431 36.0957 25.944 36.0784 25.9511 36.0585C25.9577 36.0398 25.9674 36.0258 25.9762 36.0167C25.9936 35.9986 26.0062 36 26 36V38C27.0841 38 28.0521 37.1046 27.9344 35.9094L25.944 36.1054Z" fill="#222222"/>
<rect x="25.25" y="9.25" width="6.5" height="0.5" rx="0.25" stroke="#222222" stroke-width="0.5" stroke-linecap="round"/>
<rect x="28.75" y="6.25" width="6.5" height="0.5" rx="0.25" transform="rotate(90 28.75 6.25)" stroke="#222222" stroke-width="0.5" stroke-linecap="round"/>
</svg>
