<svg width="32" height="32" viewBox="0 0 32 32" fill="none" xmlns="http://www.w3.org/2000/svg">
<path d="M16.5 8.66666V24.6667" stroke="#222222" stroke-linecap="round"/>
<path d="M28.1875 8.66666V24.6667" stroke="#222222" stroke-linecap="round"/>
<path d="M4.8125 8.66666V24.6667" stroke="#222222" stroke-linecap="round"/>
<path d="M28.1875 24.6667C28.1875 24.6667 26.8125 22 22 22C17.1875 22 16.5 24.6667 16.5 24.6667" stroke="#222222" stroke-linecap="round"/>
<path d="M4.8125 24.6667C4.8125 24.6667 6.1875 22 11 22C15.8125 22 16.5 24.6667 16.5 24.6667" stroke="#222222" stroke-linecap="round"/>
<path d="M28.1875 8.66667C28.1875 8.66667 26.8125 6 22 6C17.1875 6 16.5 8.66667 16.5 8.66667" stroke="#222222" stroke-linecap="round"/>
<path d="M4.8125 8.66667C4.8125 8.66667 6.1875 6 11 6C15.8125 6 16.5 8.66667 16.5 8.66667" stroke="#222222" stroke-linecap="round"/>
</svg>
