<svg width="40" height="40" viewBox="0 0 40 40" fill="none" xmlns="http://www.w3.org/2000/svg">
<path d="M29.3334 26.6667H12.5639C10.9046 26.6667 10.075 26.6667 9.38722 27.0561C8.69947 27.4455 8.27262 28.1569 7.41893 29.5797L6.66675 30.8333V9C6.66675 7.11438 6.66675 6.17157 7.25253 5.58579C7.83832 5 8.78113 5 10.6667 5H29.3334C31.219 5 32.1618 5 32.7476 5.58579C33.3334 6.17157 33.3334 7.11438 33.3334 9V22.6667C33.3334 24.5523 33.3334 25.4951 32.7476 26.0809C32.1618 26.6667 31.219 26.6667 29.3334 26.6667Z" fill="#7E869E" fill-opacity="0.25"/>
<path d="M33.3334 20V31C33.3334 32.8856 33.3334 33.8284 32.7476 34.4142C32.1618 35 31.219 35 29.3334 35H10.8334C9.74781 35 9.205 35 8.76463 34.8612C7.83114 34.5668 7.09993 33.8356 6.8056 32.9021C6.66675 32.4617 6.66675 31.9189 6.66675 30.8333V30.8333C6.66675 29.7477 6.66675 29.2049 6.8056 28.7645C7.09993 27.8311 7.83114 27.0998 8.76463 26.8055C9.205 26.6667 9.74781 26.6667 10.8334 26.6667H29.3334C31.219 26.6667 32.1618 26.6667 32.7476 26.0809C33.3334 25.4951 33.3334 24.5523 33.3334 22.6667V9C33.3334 7.11438 33.3334 6.17157 32.7476 5.58579C32.1618 5 31.219 5 29.3334 5H10.6667C8.78113 5 7.83832 5 7.25253 5.58579C6.66675 6.17157 6.66675 7.11438 6.66675 9V30.8333" stroke="#222222" stroke-width="2"/>
<path d="M15 16.6673L17.6262 19.2935C18.0168 19.6841 18.6499 19.6841 19.0404 19.2935L25 13.334" stroke="#222222" stroke-width="2" stroke-linecap="round"/>
</svg>
