<svg width="48" height="48" viewBox="0 0 48 48" fill="none" xmlns="http://www.w3.org/2000/svg">
<circle cx="24" cy="16" r="5" stroke="#222222" stroke-width="2" stroke-linecap="round"/>
<path d="M27.5359 13C27.9315 12.3149 28.5213 11.7624 29.2308 11.4125C29.9404 11.0626 30.7377 10.931 31.5221 11.0342C32.3065 11.1375 33.0426 11.471 33.6374 11.9926C34.2322 12.5143 34.6589 13.2006 34.8637 13.9647C35.0685 14.7289 35.042 15.5366 34.7877 16.2858C34.5334 17.0349 34.0627 17.6918 33.435 18.1734C32.8074 18.655 32.051 18.9397 31.2616 18.9914C30.4722 19.0432 29.6851 18.8597 29 18.4641" stroke="#222222" stroke-width="2"/>
<path d="M20.4641 13C20.0685 12.3149 19.4787 11.7624 18.7692 11.4125C18.0596 11.0626 17.2623 10.931 16.4779 11.0342C15.6935 11.1375 14.9574 11.471 14.3626 11.9926C13.7678 12.5143 13.3411 13.2006 13.1363 13.9647C12.9315 14.7289 12.958 15.5366 13.2123 16.2858C13.4666 17.0349 13.9373 17.6918 14.565 18.1734C15.1926 18.655 15.949 18.9397 16.7384 18.9914C17.5278 19.0432 18.3149 18.8597 19 18.4641" stroke="#222222" stroke-width="2"/>
<path d="M24 25C33.0553 25 34.6562 33.132 34.9392 36.0074C34.9933 36.557 34.5523 37 34 37H14C13.4477 37 13.0067 36.557 13.0608 36.0074C13.3438 33.132 14.9447 25 24 25Z" stroke="#222222" stroke-width="2" stroke-linecap="round"/>
<path d="M38.831 31.9128L37.8487 32.0996L37.8487 32.0996L38.831 31.9128ZM26.1742 25.1718L25.4357 24.4976L24.1948 25.8566L26.0103 26.1583L26.1742 25.1718ZM34.3626 33L33.402 33.2779L33.6109 34H34.3626V33ZM31 24C33.326 24 34.8846 25.2931 35.972 27.0182C37.0742 28.7667 37.6113 30.8516 37.8487 32.0996L39.8134 31.726C39.5581 30.3835 38.9627 28.012 37.6639 25.9517C36.3505 23.868 34.24 22 31 22V24ZM26.9127 25.8461C27.9134 24.75 29.2214 24 31 24V22C28.5655 22 26.7471 23.0612 25.4357 24.4976L26.9127 25.8461ZM26.0103 26.1583C30.6113 26.9229 32.5579 30.3602 33.402 33.2779L35.3232 32.7221C34.381 29.4652 32.038 25.1326 26.3381 24.1854L26.0103 26.1583ZM37.895 32H34.3626V34H37.895V32ZM37.8487 32.0996C37.8473 32.0926 37.8465 32.0765 37.852 32.0569C37.8571 32.0388 37.8655 32.0253 37.873 32.0166C37.8883 31.9992 37.9009 32 37.895 32V34C39.0581 34 40.0513 32.9768 39.8134 31.726L37.8487 32.0996Z" fill="#222222"/>
<path d="M21.8259 25.1718L21.9898 26.1583L23.8052 25.8566L22.5644 24.4976L21.8259 25.1718ZM9.16897 31.9128L10.1514 32.0996L9.16897 31.9128ZM13.6374 33V34H14.3891L14.598 33.2779L13.6374 33ZM17.0001 24C18.7787 24 20.0866 24.75 21.0874 25.8461L22.5644 24.4976C21.253 23.0612 19.4345 22 17.0001 22V24ZM10.1514 32.0996C10.3887 30.8516 10.9258 28.7667 12.028 27.0182C13.1154 25.2931 14.6741 24 17.0001 24V22C13.7601 22 11.6496 23.868 10.3361 25.9517C9.03737 28.012 8.44189 30.3835 8.18658 31.726L10.1514 32.0996ZM10.105 32C10.0991 32 10.1117 31.9992 10.127 32.0166C10.1345 32.0253 10.1429 32.0388 10.148 32.0569C10.1535 32.0765 10.1527 32.0926 10.1514 32.0996L8.18658 31.726C7.94869 32.9768 8.94188 34 10.105 34V32ZM13.6374 32H10.105V34H13.6374V32ZM14.598 33.2779C15.4422 30.3602 17.3888 26.9229 21.9898 26.1583L21.6619 24.1854C15.9621 25.1326 13.6191 29.4652 12.6768 32.7221L14.598 33.2779Z" fill="#222222"/>
</svg>
