<svg width="32" height="32" viewBox="0 0 32 32" fill="none" xmlns="http://www.w3.org/2000/svg">
<path d="M16 26.6666L6.01305 14.1829C5.68053 13.7673 5.51427 13.5595 5.4696 13.309C5.42493 13.0586 5.50909 12.8061 5.67742 12.3011L7.08831 8.0684C7.52833 6.74836 7.74833 6.08834 8.27211 5.71083C8.79588 5.33331 9.4916 5.33331 10.883 5.33331H21.117C22.5084 5.33331 23.2041 5.33331 23.7279 5.71083C24.2517 6.08834 24.4717 6.74836 24.9117 8.0684L26.3226 12.3011C26.4909 12.8061 26.5751 13.0586 26.5304 13.309C26.4858 13.5595 26.3195 13.7673 25.987 14.1829L16 26.6666ZM16 26.6666L20.6667 12M16 26.6666L11.3333 12M26 13.3333L20.6667 12M20.6667 12L18.6667 6.66665M20.6667 12H11.3333M13.3333 6.66665L11.3333 12M11.3333 12L6.00001 13.3333" stroke="#222222" stroke-linecap="round"/>
</svg>
