<svg width="24" height="24" viewBox="0 0 24 24" fill="none" xmlns="http://www.w3.org/2000/svg">
<path d="M12 14L11.2929 14.7071L12 15.4142L12.7071 14.7071L12 14ZM13 5C13 4.44772 12.5523 4 12 4C11.4477 4 11 4.44771 11 5L13 5ZM6.29289 9.70711L11.2929 14.7071L12.7071 13.2929L7.70711 8.29289L6.29289 9.70711ZM12.7071 14.7071L17.7071 9.70711L16.2929 8.29289L11.2929 13.2929L12.7071 14.7071ZM13 14L13 5L11 5L11 14L13 14Z" fill="white"/>
<path d="M5 15L5 16C5 17.1046 5.89543 18 7 18L17 18C18.1046 18 19 17.1046 19 16V15" stroke="white" stroke-width="2"/>
</svg>
