<svg width="32" height="32" viewBox="0 0 32 32" fill="none" xmlns="http://www.w3.org/2000/svg">
<circle cx="16" cy="10.6667" r="3.5" stroke="#222222" stroke-linecap="round"/>
<path d="M18.2129 8.58332C18.4931 8.09802 18.9109 7.7067 19.4135 7.45885C19.9161 7.211 20.4809 7.11775 21.0365 7.1909C21.5921 7.26404 22.1135 7.50029 22.5348 7.86978C22.9561 8.23926 23.2584 8.72538 23.4035 9.26667C23.5485 9.80796 23.5298 10.3801 23.3496 10.9107C23.1695 11.4414 22.8361 11.9067 22.3915 12.2478C21.9469 12.589 21.4112 12.7906 20.852 12.8273C20.2928 12.8639 19.7353 12.7339 19.25 12.4537" stroke="#222222"/>
<path d="M13.7871 8.58332C13.5069 8.09802 13.0891 7.7067 12.5865 7.45885C12.0839 7.211 11.5191 7.11775 10.9635 7.1909C10.4079 7.26404 9.88649 7.50029 9.46518 7.86978C9.04386 8.23926 8.74157 8.72538 8.59653 9.26667C8.4515 9.80796 8.47023 10.3801 8.65035 10.9107C8.83048 11.4414 9.16392 11.9067 9.6085 12.2478C10.0531 12.589 10.5888 12.7906 11.148 12.8273C11.7072 12.8639 12.2647 12.7339 12.75 12.4537" stroke="#222222"/>
<path d="M16 16.6667C21.716 16.6667 22.9766 21.5271 23.2547 23.671C23.3257 24.2187 22.8856 24.6667 22.3333 24.6667H9.66666C9.11437 24.6667 8.67429 24.2187 8.74532 23.671C9.02333 21.5271 10.284 16.6667 16 16.6667Z" stroke="#222222" stroke-linecap="round"/>
<path d="M25.813 20.913L26.3013 20.8054L25.813 20.913ZM17.4495 16.7812L17.0802 16.4441L16.4598 17.1236L17.3675 17.2744L17.4495 16.7812ZM22.9084 22L22.4281 22.1389L22.5326 22.5H22.9084V22ZM20.6667 15.8333C22.1914 15.8333 23.2368 16.6313 23.9743 17.6988C24.7211 18.7799 25.1222 20.1018 25.3247 21.0206L26.3013 20.8054C26.0873 19.8348 25.6512 18.3669 24.797 17.1304C23.9335 15.8805 22.6139 14.8333 20.6667 14.8333V15.8333ZM17.8187 17.1183C18.5118 16.3593 19.4263 15.8333 20.6667 15.8333V14.8333C19.0983 14.8333 17.9286 15.5149 17.0802 16.4441L17.8187 17.1183ZM17.3675 17.2744C20.5264 17.7994 21.8572 20.1655 22.4281 22.1389L23.3887 21.861C22.7687 19.718 21.2397 16.9042 17.5314 16.288L17.3675 17.2744ZM24.895 21.5H22.9084V22.5H24.895V21.5ZM25.3247 21.0206C25.3758 21.2525 25.2026 21.5 24.895 21.5V22.5C25.7706 22.5 26.5048 21.729 26.3013 20.8054L25.3247 21.0206Z" fill="#222222"/>
<path d="M14.5505 16.7812L14.6325 17.2744L15.5402 17.1236L14.9198 16.4441L14.5505 16.7812ZM6.18699 20.913L6.67527 21.0206L6.18699 20.913ZM9.09159 22V22.5H9.46744L9.57189 22.1389L9.09159 22ZM11.3333 15.8333C12.5738 15.8333 13.4882 16.3593 14.1813 17.1183L14.9198 16.4441C14.0714 15.5149 12.9017 14.8333 11.3333 14.8333V15.8333ZM6.67527 21.0206C6.8778 20.1018 7.27887 18.7799 8.02571 17.6988C8.76321 16.6313 9.80856 15.8333 11.3333 15.8333V14.8333C9.3861 14.8333 8.06651 15.8805 7.20296 17.1304C6.34875 18.3669 5.91266 19.8348 5.69871 20.8054L6.67527 21.0206ZM7.10499 21.5C6.79734 21.5 6.62415 21.2525 6.67527 21.0206L5.69871 20.8054C5.49513 21.7289 6.2294 22.5 7.10499 22.5V21.5ZM9.09159 21.5H7.10499V22.5H9.09159V21.5ZM9.57189 22.1389C10.1428 20.1655 11.4736 17.7994 14.6325 17.2744L14.4686 16.288C10.7603 16.9042 9.23127 19.718 8.61129 21.861L9.57189 22.1389Z" fill="#222222"/>
</svg>
