<svg width="17" height="17" viewBox="0 0 17 17" fill="none" xmlns="http://www.w3.org/2000/svg">
<circle cx="8.50016" cy="10.625" r="1.41667" fill="white"/>
<path d="M3.1875 9.84585C3.1875 8.80429 3.1875 8.28351 3.37673 7.88C3.57511 7.457 3.91531 7.11679 4.33831 6.91842C4.74182 6.72919 5.2626 6.72919 6.30417 6.72919H10.6958C11.7374 6.72919 12.2582 6.72919 12.6617 6.91842C13.0847 7.11679 13.4249 7.457 13.6233 7.88C13.8125 8.28351 13.8125 8.80429 13.8125 9.84585V9.84585C13.8125 11.4082 13.8125 12.1894 13.5287 12.7946C13.2311 13.4291 12.7208 13.9394 12.0863 14.237C11.481 14.5209 10.6998 14.5209 9.1375 14.5209H7.8625C6.30015 14.5209 5.51898 14.5209 4.91372 14.237C4.27921 13.9394 3.76891 13.4291 3.47135 12.7946C3.1875 12.1894 3.1875 11.4082 3.1875 9.84585V9.84585Z" stroke="white"/>
<path d="M11.6875 6.72919V5.66669C11.6875 3.90628 10.2604 2.47919 8.5 2.47919V2.47919C6.73959 2.47919 5.3125 3.90628 5.3125 5.66669V6.72919" stroke="white" stroke-linecap="round"/>
</svg>
