<svg width="40" height="40" viewBox="0 0 40 40" fill="none" xmlns="http://www.w3.org/2000/svg">
<path d="M3.33325 19.9993L2.55238 19.3747L2.05263 19.9993L2.55238 20.624L3.33325 19.9993ZM18.3333 20.9993C18.8855 20.9993 19.3333 20.5516 19.3333 19.9993C19.3333 19.4471 18.8855 18.9993 18.3333 18.9993V20.9993ZM9.21905 11.0413L2.55238 19.3747L4.11412 20.624L10.7808 12.2907L9.21905 11.0413ZM2.55238 20.624L9.21905 28.9574L10.7808 27.708L4.11412 19.3747L2.55238 20.624ZM3.33325 20.9993H18.3333V18.9993H3.33325V20.9993Z" fill="#FF0000"/>
<path d="M16.6667 13.5539V10.0558C16.6667 8.43748 16.6667 7.62831 17.1407 7.06882C17.6147 6.50933 18.4128 6.3763 20.0092 6.11025L29.6804 4.49838C32.9234 3.95787 34.545 3.68761 35.6059 4.58631C36.6667 5.485 36.6667 7.12892 36.6667 10.4167V29.5846C36.6667 32.8724 36.6667 34.5163 35.6059 35.415C34.545 36.3137 32.9234 36.0434 29.6804 35.5029L20.0092 33.8911C18.4128 33.625 17.6147 33.492 17.1407 32.9325C16.6667 32.373 16.6667 31.5638 16.6667 29.9455V26.7773" stroke="#FF0000" stroke-width="2"/>
</svg>
