<svg width="32" height="32" viewBox="0 0 32 32" fill="none" xmlns="http://www.w3.org/2000/svg">
<path fill-rule="evenodd" clip-rule="evenodd" d="M27.7748 16C27.7748 15.6509 27.5829 15.4096 27.1993 14.9271C25.4652 12.7462 21.1049 8 16.0002 8C10.8954 8 6.53518 12.7462 4.80106 14.9271C4.41741 15.4096 4.22559 15.6509 4.22559 16C4.22559 16.3491 4.41741 16.5904 4.80106 17.0729C6.53518 19.2538 10.8954 24 16.0002 24C21.1049 24 25.4652 19.2538 27.1993 17.0729C27.5829 16.5904 27.7748 16.3491 27.7748 16ZM16.0002 20C18.2093 20 20.0002 18.2091 20.0002 16C20.0002 13.7909 18.2093 12 16.0002 12C13.791 12 12.0002 13.7909 12.0002 16C12.0002 18.2091 13.791 20 16.0002 20Z" fill="white"/>
</svg>
