<svg width="32" height="32" viewBox="0 0 32 32" fill="none" xmlns="http://www.w3.org/2000/svg">
<g id="menu">
<path id="Combined Shape" fill-rule="evenodd" clip-rule="evenodd" d="M9 10.6667H23C23.553 10.6667 24 10.0707 24 9.33333C24 8.596 23.553 8 23 8H9C8.447 8 8 8.596 8 9.33333C8 10.0707 8.447 10.6667 9 10.6667ZM23 14.6667H9C8.447 14.6667 8 15.2627 8 16C8 16.7373 8.447 17.3333 9 17.3333H23C23.553 17.3333 24 16.7373 24 16C24 15.2627 23.553 14.6667 23 14.6667ZM9 21.3333H23C23.553 21.3333 24 21.9293 24 22.6667C24 23.404 23.553 24 23 24H9C8.447 24 8 23.404 8 22.6667C8 21.9293 8.447 21.3333 9 21.3333Z" fill="black"/>
</g>
</svg>
