<svg width="40" height="40" viewBox="0 0 40 40" fill="none" xmlns="http://www.w3.org/2000/svg">
<path d="M23.5134 5.13431H23.0134V5.15924L23.0159 5.18406L23.5134 5.13431ZM23.5134 5.13429H24.0134V5.10935L24.0109 5.08453L23.5134 5.13429ZM23.6566 6.56652L23.1591 6.61627L23.1591 6.61627L23.6566 6.56652ZM26.9132 7.91543L27.2298 8.30241L27.2298 8.30241L26.9132 7.91543ZM28.0272 7.004L27.7105 6.61702L27.7105 6.61702L28.0272 7.004ZM29.4106 6.20612L29.3857 6.7055L29.3857 6.7055L29.4106 6.20612ZM30.7078 7.1377L31.0614 6.78414L31.0614 6.78414L30.7078 7.1377ZM32.8622 9.29205L32.5086 9.64561L32.5086 9.64561L32.8622 9.29205ZM33.7938 10.5893L34.2932 10.5644L34.2932 10.5644L33.7938 10.5893ZM32.9959 11.9727L32.6089 11.6561L32.6089 11.6561L32.9959 11.9727ZM32.0844 13.0868L31.6974 12.7701L31.6974 12.7701L32.0844 13.0868ZM33.4333 16.3433L33.3836 16.8408L33.3836 16.8408L33.4333 16.3433ZM34.8657 16.4865L34.9154 15.989L34.9154 15.989L34.8657 16.4865ZM36.4081 16.9006L36.0374 17.2361L36.0374 17.2361L36.4081 16.9006ZM36.4081 23.0993L36.0374 22.7638L36.0374 22.7638L36.4081 23.0993ZM34.8657 23.5134V24.0134H34.8906L34.9154 24.0109L34.8657 23.5134ZM34.8657 23.5134V23.0134H34.8407L34.8159 23.0159L34.8657 23.5134ZM33.434 23.6566L33.3842 23.1591L33.3842 23.1591L33.434 23.6566ZM32.0851 26.9131L32.472 26.5965L32.472 26.5965L32.0851 26.9131ZM32.996 28.0265L32.609 28.3431L32.609 28.3431L32.996 28.0265ZM28.0272 32.9952L28.3439 32.6082L28.3439 32.6082L28.0272 32.9952ZM26.9133 32.0838L26.5966 32.4708L26.5966 32.4708L26.9133 32.0838ZM23.6567 33.4327L23.1592 33.3829L23.1592 33.3829L23.6567 33.4327ZM23.5134 34.8657L23.0159 34.8159L23.0134 34.8407V34.8657H23.5134ZM23.5134 34.8657L24.0109 34.9154L24.0134 34.8906V34.8657H23.5134ZM23.0993 36.4081L22.7638 36.0374L22.7638 36.0374L23.0993 36.4081ZM16.9006 36.4081L17.2361 36.0374L17.2361 36.0374L16.9006 36.4081ZM16.3433 33.4333L16.8408 33.3836L16.8408 33.3836L16.3433 33.4333ZM13.0868 32.0844L12.7701 31.6975L12.7701 31.6975L13.0868 32.0844ZM11.9727 32.996L12.2893 33.383L12.2893 33.383L11.9727 32.996ZM9.29197 32.8623L8.93842 33.2158L8.93842 33.2158L9.29197 32.8623ZM7.13762 30.7079L6.76133 31.0372L6.77229 31.0497L6.78406 31.0615L7.13762 30.7079ZM7.13761 30.7079L7.51389 30.3787L7.50293 30.3661L7.49116 30.3544L7.13761 30.7079ZM6.20604 29.4107L5.70666 29.4356L5.70666 29.4356L6.20604 29.4107ZM7.00392 28.0272L7.39089 28.3439L7.3909 28.3439L7.00392 28.0272ZM7.91542 26.9132L7.52844 26.5966L7.52844 26.5966L7.91542 26.9132ZM9.2458 24.4545L8.78386 24.6458L8.78386 24.6458L9.2458 24.4545ZM6.56651 23.6566L6.61626 23.1591L6.61626 23.1591L6.56651 23.6566ZM5.13431 23.5134L5.18406 23.0159L5.15924 23.0134H5.13431V23.5134ZM5.13429 23.5134L5.08453 24.0109L5.10935 24.0134H5.13429V23.5134ZM3.59186 23.0993L3.96259 22.7638L3.96259 22.7638L3.59186 23.0993ZM3.59186 16.9006L3.22113 16.5651L3.22113 16.5651L3.59186 16.9006ZM5.13431 16.4865L5.08455 15.989L5.08455 15.989L5.13431 16.4865ZM6.56714 16.3433L6.61689 16.8408L6.61689 16.8408L6.56714 16.3433ZM9.24643 15.5454L9.70837 15.7368L9.70837 15.7368L9.24643 15.5454ZM7.91604 13.0867L8.30302 12.7701L8.30302 12.7701L7.91604 13.0867ZM7.004 11.972L6.61702 12.2886L6.61702 12.2886L7.004 11.972ZM7.1377 9.2913L6.78414 8.93774L6.78414 8.93774L7.1377 9.2913ZM9.29205 7.13694L9.6456 7.4905L9.6456 7.4905L9.29205 7.13694ZM11.9727 7.00324L11.6561 7.39022L11.6561 7.39022L11.9727 7.00324ZM13.0868 7.91478L12.7702 8.30176L13.0868 7.91478ZM15.5455 9.24516L15.3542 8.78322L15.3542 8.78322L15.5455 9.24516ZM16.3434 6.56587L16.8409 6.61562L16.8409 6.61562L16.3434 6.56587ZM16.4865 5.13431L15.989 5.08455L15.989 5.08455L16.4865 5.13431ZM16.9006 3.59186L16.5651 3.22113L16.5651 3.22113L16.9006 3.59186ZM23.0993 3.59186L22.7638 3.96259L22.7638 3.96259L23.0993 3.59186ZM24.0134 5.13431V5.13429H23.0134V5.13431H24.0134ZM24.1542 6.51677L24.0109 5.08455L23.0159 5.18406L23.1591 6.61627L24.1542 6.51677ZM24.6458 8.78387C24.5946 8.76264 24.493 8.70273 24.3944 8.31089C24.2956 7.91834 24.2375 7.35044 24.1542 6.51677L23.1591 6.61627C23.2391 7.41614 23.3035 8.07339 23.4246 8.55486C23.5459 9.03704 23.7616 9.5 24.2631 9.70775L24.6458 8.78387ZM26.5966 7.52845C25.9481 8.059 25.5055 8.41946 25.1581 8.6272C24.8113 8.83457 24.6971 8.80511 24.6458 8.78387L24.2631 9.70775C24.7647 9.9155 25.2446 9.74063 25.6713 9.48546C26.0974 9.23066 26.6077 8.81144 27.2298 8.30241L26.5966 7.52845ZM27.7105 6.61702L26.5966 7.52845L27.2298 8.30241L28.3438 7.39098L27.7105 6.61702ZM29.4355 5.70674C29.1019 5.69011 28.82 5.80699 28.5597 5.96932C28.3115 6.1241 28.0331 6.35313 27.7105 6.61702L28.3438 7.39098C28.687 7.11016 28.9079 6.93065 29.0888 6.81787C29.2576 6.71264 29.3345 6.70295 29.3857 6.7055L29.4355 5.70674ZM31.0614 6.78414C30.7667 6.48947 30.5125 6.23388 30.2809 6.05517C30.038 5.86774 29.7691 5.72338 29.4355 5.70674L29.3857 6.7055C29.437 6.70806 29.5125 6.72536 29.67 6.84686C29.8387 6.97708 30.0407 7.17767 30.3543 7.49125L31.0614 6.78414ZM33.2158 8.9385L31.0614 6.78414L30.3543 7.49125L32.5086 9.64561L33.2158 8.9385ZM34.2932 10.5644C34.2765 10.2308 34.1322 9.96187 33.9447 9.71898C33.766 9.48739 33.5104 9.23317 33.2158 8.9385L32.5086 9.64561C32.8222 9.95919 33.0228 10.1612 33.153 10.3299C33.2745 10.4874 33.2918 10.5629 33.2944 10.6142L34.2932 10.5644ZM33.3829 12.2894C33.6468 11.9668 33.8758 11.6884 34.0306 11.4402C34.1929 11.1799 34.3098 10.8979 34.2932 10.5644L33.2944 10.6142C33.297 10.6654 33.2873 10.7423 33.182 10.9111C33.0692 11.092 32.8897 11.3129 32.6089 11.6561L33.3829 12.2894ZM32.4714 13.4034L33.3829 12.2894L32.6089 11.6561L31.6974 12.7701L32.4714 13.4034ZM31.216 15.3541C31.1948 15.3029 31.1653 15.1887 31.3727 14.8419C31.5804 14.4945 31.9409 14.0518 32.4714 13.4034L31.6974 12.7701C31.1884 13.3923 30.7692 13.9026 30.5144 14.3287C30.2592 14.7554 30.0844 15.2353 30.2921 15.7368L31.216 15.3541ZM33.4831 15.8458C32.6494 15.7624 32.0815 15.7043 31.689 15.6055C31.2971 15.507 31.2372 15.4054 31.216 15.3541L30.2921 15.7368C30.4999 16.2384 30.9628 16.454 31.445 16.5753C31.9265 16.6965 32.5837 16.7608 33.3836 16.8408L33.4831 15.8458ZM34.9154 15.989L33.4831 15.8458L33.3836 16.8408L34.8159 16.9841L34.9154 15.989ZM36.7788 16.5651C36.5547 16.3175 36.2727 16.2008 35.9738 16.1315C35.6889 16.0654 35.3301 16.0305 34.9154 15.989L34.8159 16.9841C35.2572 17.0282 35.5403 17.0575 35.748 17.1056C35.9417 17.1505 36.0029 17.1981 36.0374 17.2361L36.7788 16.5651ZM37.1666 18.4766C37.1666 18.0599 37.1676 17.6994 37.1302 17.4093C37.091 17.105 37.0029 16.8128 36.7788 16.5651L36.0374 17.2361C36.0718 17.2742 36.113 17.3399 36.1384 17.5371C36.1657 17.7485 36.1666 18.0332 36.1666 18.4766H37.1666ZM37.1666 21.5233V18.4766H36.1666V21.5233H37.1666ZM36.7788 23.4348C37.0029 23.1872 37.091 22.895 37.1302 22.5907C37.1676 22.3006 37.1666 21.9401 37.1666 21.5233H36.1666C36.1666 21.9668 36.1657 22.2515 36.1384 22.4629C36.113 22.6601 36.0718 22.7258 36.0374 22.7638L36.7788 23.4348ZM34.9154 24.0109C35.3301 23.9695 35.6889 23.9346 35.9738 23.8685C36.2727 23.7992 36.5547 23.6825 36.7788 23.4348L36.0374 22.7638C36.0029 22.8019 35.9417 22.8494 35.748 22.8943C35.5403 22.9425 35.2572 22.9718 34.8159 23.0159L34.9154 24.0109ZM34.8657 24.0134H34.8657V23.0134H34.8657V24.0134ZM33.4837 24.1541L34.9154 24.0109L34.8159 23.0159L33.3842 23.1591L33.4837 24.1541ZM31.2166 24.6458C31.2378 24.5945 31.2978 24.4929 31.6896 24.3943C32.0821 24.2956 32.65 24.2375 33.4837 24.1541L33.3842 23.1591C32.5843 23.239 31.9271 23.3034 31.4456 23.4246C30.9634 23.5459 30.5005 23.7615 30.2927 24.2631L31.2166 24.6458ZM32.472 26.5965C31.9415 25.9481 31.581 25.5054 31.3733 25.158C31.1659 24.8112 31.1954 24.697 31.2166 24.6458L30.2927 24.2631C30.085 24.7646 30.2599 25.2445 30.515 25.6712C30.7698 26.0973 31.189 26.6076 31.6981 27.2297L32.472 26.5965ZM33.383 27.7099L32.472 26.5965L31.6981 27.2297L32.609 28.3431L33.383 27.7099ZM34.2932 29.4349C34.3099 29.1013 34.193 28.8193 34.0307 28.559C33.8759 28.3108 33.6468 28.0324 33.383 27.7099L32.609 28.3431C32.8898 28.6863 33.0693 28.9073 33.1821 29.0881C33.2873 29.2569 33.297 29.3338 33.2945 29.385L34.2932 29.4349ZM33.2158 31.0607C33.5105 30.766 33.7661 30.5118 33.9448 30.2802C34.1322 30.0374 34.2766 29.7684 34.2932 29.4349L33.2945 29.385C33.2919 29.4363 33.2746 29.5119 33.1531 29.6693C33.0229 29.8381 32.8223 30.04 32.5087 30.3536L33.2158 31.0607ZM31.0615 33.2151L33.2158 31.0607L32.5087 30.3536L30.3544 32.508L31.0615 33.2151ZM29.4356 34.2925C29.7692 34.2758 30.0381 34.1315 30.281 33.9441C30.5126 33.7653 30.7668 33.5098 31.0615 33.2151L30.3544 32.508C30.0408 32.8216 29.8388 33.0221 29.6701 33.1524C29.5126 33.2739 29.437 33.2912 29.3858 33.2937L29.4356 34.2925ZM27.7106 33.3822C28.0332 33.6461 28.3115 33.8751 28.5598 34.0299C28.8201 34.1922 29.102 34.3091 29.4356 34.2925L29.3858 33.2937C29.3346 33.2963 29.2576 33.2866 29.0889 33.1814C28.908 33.0686 28.6871 32.8891 28.3439 32.6082L27.7106 33.3822ZM26.5966 32.4708L27.7106 33.3822L28.3439 32.6082L27.2299 31.6968L26.5966 32.4708ZM24.6459 31.2153C24.6972 31.1941 24.8113 31.1646 25.1581 31.372C25.5055 31.5798 25.9482 31.9402 26.5966 32.4708L27.2299 31.6968C26.6077 31.1878 26.0974 30.7686 25.6713 30.5138C25.2446 30.2586 24.7648 30.0837 24.2632 30.2915L24.6459 31.2153ZM24.1542 33.4824C24.2376 32.6488 24.2957 32.0809 24.3945 31.6883C24.493 31.2965 24.5946 31.2366 24.6459 31.2153L24.2632 30.2915C23.7617 30.4992 23.546 30.9622 23.4247 31.4444C23.3036 31.9258 23.2392 32.5831 23.1592 33.3829L24.1542 33.4824ZM24.0109 34.9154L24.1542 33.4824L23.1592 33.3829L23.0159 34.8159L24.0109 34.9154ZM24.0134 34.8657V34.8657H23.0134V34.8657H24.0134ZM23.4348 36.7788C23.6825 36.5547 23.7992 36.2727 23.8685 35.9738C23.9346 35.6889 23.9695 35.3301 24.0109 34.9154L23.0159 34.8159C22.9718 35.2572 22.9425 35.5403 22.8943 35.748C22.8494 35.9417 22.8019 36.0029 22.7638 36.0374L23.4348 36.7788ZM21.5233 37.1666C21.9401 37.1666 22.3006 37.1676 22.5907 37.1302C22.895 37.091 23.1872 37.0029 23.4348 36.7788L22.7638 36.0374C22.7258 36.0718 22.6601 36.113 22.4629 36.1384C22.2515 36.1657 21.9668 36.1666 21.5233 36.1666V37.1666ZM18.4766 37.1666H21.5233V36.1666H18.4766V37.1666ZM16.5651 36.7788C16.8128 37.0029 17.105 37.091 17.4093 37.1302C17.6994 37.1676 18.0599 37.1666 18.4766 37.1666V36.1666C18.0332 36.1666 17.7485 36.1657 17.5371 36.1384C17.3399 36.113 17.2742 36.0718 17.2361 36.0374L16.5651 36.7788ZM15.989 34.9154C16.0305 35.3301 16.0654 35.6889 16.1315 35.9738C16.2008 36.2727 16.3175 36.5547 16.5651 36.7788L17.2361 36.0374C17.1981 36.0029 17.1505 35.9417 17.1056 35.748C17.0575 35.5403 17.0282 35.2572 16.9841 34.8159L15.989 34.9154ZM15.8458 33.4831L15.989 34.9154L16.9841 34.8159L16.8408 33.3836L15.8458 33.4831ZM15.3541 31.216C15.4054 31.2372 15.507 31.2971 15.6055 31.689C15.7043 32.0815 15.7624 32.6494 15.8458 33.4831L16.8408 33.3836C16.7608 32.5837 16.6965 31.9265 16.5753 31.445C16.454 30.9628 16.2384 30.4999 15.7368 30.2921L15.3541 31.216ZM13.4034 32.4714C14.0518 31.9409 14.4945 31.5804 14.8419 31.3727C15.1887 31.1653 15.3029 31.1948 15.3541 31.216L15.7368 30.2921C15.2353 30.0844 14.7554 30.2592 14.3287 30.5144C13.9026 30.7692 13.3923 31.1884 12.7701 31.6975L13.4034 32.4714ZM12.2893 33.383L13.4034 32.4714L12.7701 31.6975L11.656 32.609L12.2893 33.383ZM10.5643 34.2932C10.8979 34.3099 11.1798 34.193 11.4401 34.0307C11.6884 33.8759 11.9667 33.6469 12.2893 33.383L11.656 32.609C11.3128 32.8898 11.0919 33.0693 10.911 33.1821C10.7423 33.2873 10.6653 33.297 10.6141 33.2945L10.5643 34.2932ZM8.93842 33.2158C9.23309 33.5105 9.48731 33.7661 9.7189 33.9448C9.96179 34.1322 10.2307 34.2766 10.5643 34.2932L10.6141 33.2945C10.5628 33.2919 10.4873 33.2746 10.3298 33.1531C10.1611 33.0229 9.9591 32.8223 9.64552 32.5087L8.93842 33.2158ZM6.78406 31.0615L8.93842 33.2158L9.64552 32.5087L7.49117 30.3544L6.78406 31.0615ZM6.76132 31.0372L6.76133 31.0372L7.5139 30.3787L7.51389 30.3787L6.76132 31.0372ZM5.70666 29.4356C5.7233 29.7692 5.86766 30.0381 6.05508 30.281C6.23379 30.5126 6.48938 30.7668 6.78405 31.0615L7.49116 30.3544C7.17758 30.0408 6.97699 29.8388 6.84678 29.6701C6.72528 29.5126 6.70798 29.4371 6.70542 29.3858L5.70666 29.4356ZM6.61694 27.7106C6.35305 28.0332 6.12402 28.3115 5.96924 28.5598C5.80691 28.8201 5.69003 29.102 5.70666 29.4356L6.70542 29.3858C6.70287 29.3346 6.71256 29.2576 6.81779 29.0889C6.93057 28.908 7.11007 28.6871 7.39089 28.3439L6.61694 27.7106ZM7.52844 26.5966L6.61694 27.7106L7.3909 28.3439L8.3024 27.2298L7.52844 26.5966ZM8.78386 24.6458C8.80509 24.6971 8.83456 24.8113 8.62719 25.158C8.41945 25.5054 8.05898 25.9481 7.52844 26.5966L8.3024 27.2298C8.81143 26.6076 9.23064 26.0974 9.48544 25.6713C9.74062 25.2445 9.91549 24.7647 9.70774 24.2631L8.78386 24.6458ZM6.51676 24.1541C7.35043 24.2375 7.91833 24.2956 8.31087 24.3944C8.70271 24.493 8.76263 24.5946 8.78386 24.6458L9.70774 24.2631C9.49999 23.7616 9.03702 23.5459 8.55485 23.4246C8.07338 23.3035 7.41613 23.2391 6.61626 23.1591L6.51676 24.1541ZM5.08456 24.0109L6.51676 24.1541L6.61626 23.1591L5.18406 23.0159L5.08456 24.0109ZM5.13429 24.0134H5.13431V23.0134H5.13429V24.0134ZM3.22113 23.4348C3.44525 23.6825 3.72725 23.7992 4.02612 23.8685C4.31108 23.9346 4.66988 23.9695 5.08453 24.0109L5.18404 23.0159C4.74278 22.9718 4.45964 22.9425 4.252 22.8943C4.05827 22.8494 3.99702 22.8019 3.96259 22.7638L3.22113 23.4348ZM2.83331 21.5233C2.83331 21.9401 2.83234 22.3006 2.86973 22.5907C2.90895 22.895 2.99702 23.1872 3.22113 23.4348L3.96259 22.7638C3.92816 22.7258 3.88695 22.6601 3.86153 22.4629C3.83428 22.2515 3.83331 21.9668 3.83331 21.5233H2.83331ZM2.83331 18.4766V21.5233H3.83331V18.4766H2.83331ZM3.22113 16.5651C2.99702 16.8128 2.90895 17.105 2.86973 17.4093C2.83234 17.6994 2.83331 18.0599 2.83331 18.4766H3.83331C3.83331 18.0332 3.83428 17.7485 3.86153 17.5371C3.88695 17.3399 3.92816 17.2742 3.96259 17.2361L3.22113 16.5651ZM5.08455 15.989C4.66989 16.0305 4.31109 16.0654 4.02613 16.1315C3.72726 16.2008 3.44525 16.3175 3.22113 16.5651L3.96259 17.2361C3.99702 17.1981 4.05827 17.1505 4.252 17.1056C4.45964 17.0575 4.74279 17.0282 5.18406 16.9841L5.08455 15.989ZM6.51739 15.8457L5.08455 15.989L5.18406 16.9841L6.61689 16.8408L6.51739 15.8457ZM8.78449 15.3541C8.76325 15.4053 8.70334 15.5069 8.3115 15.6055C7.91896 15.7043 7.35106 15.7624 6.51739 15.8457L6.61689 16.8408C7.41676 16.7608 8.07401 16.6964 8.55548 16.5753C9.03765 16.454 9.50061 16.2383 9.70837 15.7368L8.78449 15.3541ZM7.52907 13.4033C8.05961 14.0518 8.42008 14.4944 8.62782 14.8418C8.83518 15.1886 8.80572 15.3028 8.78449 15.3541L9.70837 15.7368C9.91612 15.2352 9.74125 14.7553 9.48607 14.3286C9.23127 13.9025 8.81205 13.3922 8.30302 12.7701L7.52907 13.4033ZM6.61702 12.2886L7.52907 13.4033L8.30302 12.7701L7.39098 11.6554L6.61702 12.2886ZM5.70674 10.5636C5.6901 10.8972 5.80699 11.1791 5.96932 11.4395C6.1241 11.6877 6.35313 11.9661 6.61702 12.2886L7.39098 11.6554C7.11015 11.3121 6.93065 11.0912 6.81787 10.9103C6.71264 10.7416 6.70295 10.6647 6.7055 10.6134L5.70674 10.5636ZM6.78414 8.93774C6.48947 9.23242 6.23387 9.48664 6.05517 9.71823C5.86774 9.96111 5.72338 10.23 5.70674 10.5636L6.7055 10.6134C6.70806 10.5622 6.72536 10.4866 6.84686 10.3291C6.97707 10.1604 7.17767 9.95843 7.49125 9.64485L6.78414 8.93774ZM8.9385 6.78339L6.78414 8.93774L7.49125 9.64485L9.6456 7.4905L8.9385 6.78339ZM10.5644 5.70599C10.2308 5.72263 9.96187 5.86698 9.71898 6.05441C9.48739 6.23312 9.23317 6.48871 8.9385 6.78339L9.6456 7.4905C9.95918 7.17692 10.1612 6.97632 10.3299 6.8461C10.4873 6.72461 10.5629 6.7073 10.6142 6.70475L10.5644 5.70599ZM12.2894 6.61626C11.9668 6.35237 11.6884 6.12334 11.4402 5.96857C11.1799 5.80624 10.8979 5.68935 10.5644 5.70599L10.6142 6.70475C10.6654 6.70219 10.7423 6.71189 10.9111 6.81712C11.092 6.9299 11.3129 7.1094 11.6561 7.39022L12.2894 6.61626ZM13.4035 7.5278L12.2894 6.61626L11.6561 7.39022L12.7702 8.30176L13.4035 7.5278ZM15.3542 8.78322C15.3029 8.80445 15.1887 8.83392 14.842 8.62655C14.4946 8.41881 14.0519 8.05834 13.4035 7.5278L12.7702 8.30176C13.3924 8.81079 13.9026 9.23 14.3287 9.4848C14.7555 9.73998 15.2353 9.91485 15.7369 9.7071L15.3542 8.78322ZM15.8459 6.51612C15.7625 7.34979 15.7044 7.91769 15.6056 8.31024C15.507 8.70207 15.4055 8.76199 15.3542 8.78322L15.7369 9.7071C16.2384 9.49935 16.4541 9.03638 16.5754 8.55421C16.6965 8.07274 16.7609 7.41549 16.8409 6.61562L15.8459 6.51612ZM15.989 5.08455L15.8459 6.51612L16.8409 6.61562L16.9841 5.18406L15.989 5.08455ZM16.5651 3.22113C16.3175 3.44525 16.2008 3.72726 16.1315 4.02613C16.0654 4.31109 16.0305 4.66989 15.989 5.08455L16.9841 5.18406C17.0282 4.74279 17.0575 4.45964 17.1056 4.252C17.1505 4.05827 17.1981 3.99702 17.2361 3.96259L16.5651 3.22113ZM18.4766 2.83331C18.0599 2.83331 17.6994 2.83234 17.4093 2.86973C17.105 2.90895 16.8128 2.99702 16.5651 3.22113L17.2361 3.96259C17.2742 3.92816 17.3399 3.88695 17.5371 3.86153C17.7485 3.83428 18.0332 3.83331 18.4766 3.83331V2.83331ZM21.5233 2.83331H18.4766V3.83331H21.5233V2.83331ZM23.4348 3.22113C23.1872 2.99702 22.895 2.90895 22.5907 2.86973C22.3006 2.83234 21.9401 2.83331 21.5233 2.83331V3.83331C21.9668 3.83331 22.2515 3.83428 22.4629 3.86153C22.6601 3.88695 22.7258 3.92816 22.7638 3.96259L23.4348 3.22113ZM24.0109 5.08453C23.9695 4.66988 23.9346 4.31108 23.8685 4.02612C23.7992 3.72725 23.6825 3.44525 23.4348 3.22113L22.7638 3.96259C22.8019 3.99702 22.8494 4.05827 22.8943 4.252C22.9425 4.45964 22.9718 4.74278 23.0159 5.18404L24.0109 5.08453ZM26.1666 20C26.1666 23.4057 23.4057 26.1666 20 26.1666V27.1666C23.958 27.1666 27.1666 23.958 27.1666 20H26.1666ZM20 13.8333C23.4057 13.8333 26.1666 16.5942 26.1666 20H27.1666C27.1666 16.0419 23.958 12.8333 20 12.8333V13.8333ZM13.8333 20C13.8333 16.5942 16.5942 13.8333 20 13.8333V12.8333C16.0419 12.8333 12.8333 16.0419 12.8333 20H13.8333ZM20 26.1666C16.5942 26.1666 13.8333 23.4057 13.8333 20H12.8333C12.8333 23.958 16.0419 27.1666 20 27.1666V26.1666Z" fill="#222222"/>
</svg>
