<svg width="32" height="32" viewBox="0 0 32 32" fill="none" xmlns="http://www.w3.org/2000/svg">
<path d="M13.5248 8.83655C14.5736 6.22188 15.098 4.91455 15.9998 4.91455C16.9016 4.91455 17.426 6.22188 18.4748 8.83655L18.5236 8.9583C19.1161 10.4355 19.4124 11.174 20.0162 11.623C20.62 12.0719 21.4126 12.1429 22.9978 12.2848L23.2844 12.3105C25.8788 12.5428 27.176 12.659 27.4536 13.4843C27.7312 14.3096 26.7678 15.1861 24.8411 16.939L24.1981 17.5241C23.2227 18.4114 22.735 18.8551 22.5077 19.4366C22.4653 19.5451 22.4301 19.6562 22.4022 19.7693C22.2528 20.3755 22.3956 21.0191 22.6812 22.3064L22.7701 22.7071C23.295 25.0729 23.5575 26.2558 23.0992 26.766C22.928 26.9567 22.7055 27.0939 22.4582 27.1614C21.7966 27.3419 20.8573 26.5765 18.9787 25.0457C17.7452 24.0406 17.1284 23.538 16.4203 23.4249C16.1417 23.3804 15.8579 23.3804 15.5793 23.4249C14.8712 23.538 14.2544 24.0406 13.0209 25.0457C11.1423 26.5765 10.203 27.3419 9.54135 27.1614C9.29413 27.0939 9.07158 26.9567 8.90035 26.766C8.44211 26.2558 8.70456 25.0729 9.22946 22.7071L9.31836 22.3064C9.60397 21.0191 9.74678 20.3755 9.59737 19.7693C9.5695 19.6562 9.53425 19.5451 9.49185 19.4366C9.26455 18.8551 8.77688 18.4114 7.80154 17.5241L7.1585 16.939C5.23178 15.1861 4.26841 14.3096 4.54598 13.4843C4.82356 12.659 6.12076 12.5428 8.71518 12.3105L9.00177 12.2848C10.587 12.1429 11.3796 12.0719 11.9834 11.623C12.5872 11.174 12.8835 10.4355 13.476 8.9583L13.5248 8.83655Z" stroke="#33363F" stroke-width="2"/>
</svg>
