<svg width="32" height="32" viewBox="0 0 32 32" fill="none" xmlns="http://www.w3.org/2000/svg">
<path fill-rule="evenodd" clip-rule="evenodd" d="M16 3.5C13.0856 3.5 10.5785 5.23961 9.45858 7.73501C9.30406 8.07929 9.19737 8.31648 9.10781 8.48755C9.06394 8.57136 9.02977 8.62829 9.00244 8.66741C8.98918 8.68639 8.97896 8.69911 8.97172 8.70732C8.96457 8.71542 8.96105 8.71831 8.96128 8.71812C8.93274 8.7418 8.92122 8.74981 8.91442 8.75421C8.90763 8.75861 8.8956 8.76584 8.86232 8.78217C8.84188 8.79221 8.79073 8.81104 8.64457 8.82192C8.49573 8.83301 8.29905 8.83333 8 8.83333C5.51472 8.83333 3.5 10.8481 3.5 13.3333C3.5 15.8186 5.51472 17.8333 8 17.8333H10.0049L11.0049 16.8333H8C6.067 16.8333 4.5 15.2663 4.5 13.3333C4.5 11.4003 6.067 9.83333 8 9.83333H8.0183C8.2941 9.83334 8.52837 9.83335 8.71883 9.81916C8.91619 9.80447 9.11496 9.77214 9.30296 9.67986C9.42284 9.62101 9.49706 9.57297 9.59983 9.4877C9.77048 9.3461 9.8909 9.14783 9.99376 8.95134C10.0991 8.75018 10.218 8.48507 10.3641 8.15973L10.3709 8.14447C11.3355 5.99525 13.4937 4.5 16 4.5C18.5063 4.5 20.6645 5.99525 21.6291 8.14447L21.636 8.15976C21.782 8.48509 21.9009 8.75019 22.0062 8.95134C22.1091 9.14783 22.2295 9.3461 22.4002 9.4877C22.5029 9.57297 22.5772 9.62101 22.697 9.67986C22.885 9.77214 23.0838 9.80447 23.2812 9.81916C23.4716 9.83335 23.7059 9.83334 23.9817 9.83333H24C25.933 9.83333 27.5 11.4003 27.5 13.3333C27.5 15.2663 25.933 16.8333 24 16.8333H20.9951L21.9951 17.8333H24C26.4853 17.8333 28.5 15.8186 28.5 13.3333C28.5 10.8481 26.4853 8.83333 24 8.83333C23.7009 8.83333 23.5043 8.83301 23.3554 8.82192C23.2093 8.81104 23.1581 8.79221 23.1377 8.78217C23.1044 8.76584 23.0924 8.75861 23.0856 8.75421C23.0788 8.74981 23.0673 8.7418 23.0387 8.71812C23.039 8.71831 23.0354 8.71542 23.0283 8.70732C23.021 8.69911 23.0108 8.68639 22.9976 8.66741C22.9702 8.62829 22.9361 8.57136 22.8922 8.48755C22.8026 8.31648 22.6959 8.07929 22.5414 7.73501C21.4215 5.23962 18.9144 3.5 16 3.5Z" fill="#222222"/>
<path d="M16 16L15.6464 15.6464L16 15.2929L16.3535 15.6464L16 16ZM16.5 28C16.5 28.2761 16.2761 28.5 16 28.5C15.7238 28.5 15.5 28.2761 15.5 28L16.5 28ZM10.3131 20.9798L15.6464 15.6464L16.3535 16.3536L11.0202 21.6869L10.3131 20.9798ZM16.3535 15.6464L21.6869 20.9798L20.9798 21.6869L15.6464 16.3536L16.3535 15.6464ZM16.5 16L16.5 28L15.5 28L15.5 16L16.5 16Z" fill="#222222"/>
</svg>
